<?xml version="1.0" encoding="UTF-8" standalone="no"?>
<svg
   sodipodi:docname="karma.svg"
   inkscape:version="1.2.1 (9c6d41e, 2022-07-14)"
   width="48px"
   height="48px"
   viewBox="0 0 48 48"
   version="1.1"
   id="SVGRoot"
   xmlns:inkscape="http://www.inkscape.org/namespaces/inkscape"
   xmlns:sodipodi="http://sodipodi.sourceforge.net/DTD/sodipodi-0.dtd"
   xmlns="http://www.w3.org/2000/svg"
   xmlns:svg="http://www.w3.org/2000/svg"
   xmlns:rdf="http://www.w3.org/1999/02/22-rdf-syntax-ns#"
   xmlns:cc="http://creativecommons.org/ns#"
   xmlns:dc="http://purl.org/dc/elements/1.1/">
  <defs
     id="defs7051" />
  <sodipodi:namedview
     inkscape:grid-bbox="true"
     inkscape:window-maximized="1"
     inkscape:window-y="40"
     inkscape:window-x="0"
     inkscape:window-height="1369"
     inkscape:window-width="2560"
     showgrid="false"
     inkscape:document-rotation="0"
     inkscape:current-layer="layer1"
     inkscape:document-units="px"
     inkscape:cy="27.832012"
     inkscape:cx="51.710614"
     inkscape:zoom="9.4854801"
     inkscape:pageshadow="2"
     inkscape:pageopacity="0.0"
     borderopacity="1.0"
     bordercolor="#666666"
     pagecolor="#ffffff"
     id="base"
     inkscape:showpageshadow="2"
     inkscape:pagecheckerboard="0"
     inkscape:deskcolor="#d1d1d1" />
  <metadata
     id="metadata7054">
    <rdf:RDF>
      <cc:Work
         rdf:about="">
        <dc:format>image/svg+xml</dc:format>
        <dc:type
           rdf:resource="http://purl.org/dc/dcmitype/StillImage" />
        <dc:title />
      </cc:Work>
    </rdf:RDF>
  </metadata>
  <g
     id="layer1"
     inkscape:groupmode="layer"
     inkscape:label="Layer 1">
    <rect
       style="fill:#ffffff;fill-opacity:1;stroke-width:4;stroke-linecap:square;paint-order:stroke fill markers;stop-color:#000000"
       id="rect35974"
       width="48"
       height="48"
       x="0"
       y="0" />
    <path
       class="st0"
       d="M -0.01593006,0.09832263 V 33.3993 C 1.3290785,31.249687 3.2745373,29.616462 5.8204472,28.559669 v 0 c 1.3930443,-0.564425 2.9782331,-0.852641 4.9717298,-0.912685 3.434575,-0.09607 6.136602,-1.537153 8.034025,-4.275206 1.345009,-1.94546 1.849387,-4.287216 1.405054,-6.592944 -0.420315,-2.221667 -1.669252,-4.11909 -3.506631,-5.34401 -3.158368,-2.1135854 -7.3375031,-1.4530904 -9.4871152,1.501127 -1.6812611,2.305728 -1.4410807,5.500125 0.5524147,7.289466 1.5371521,1.369028 3.7348015,1.513136 5.2239165,0.324244 1.104831,-0.876658 1.441082,-2.389792 0.768578,-3.458594 -0.336253,-0.528396 -0.924694,-0.828623 -1.453089,-0.756568 -0.288217,0.04803 -0.480361,0.168126 -0.552415,0.336253 -0.06004,0.168125 -0.01201,0.372279 0.168125,0.600449 0.168127,0.216163 0.228171,0.468352 0.168127,0.732549 -0.06004,0.288217 -0.252189,0.540406 -0.540405,0.708533 -0.61246,0.34826 -1.417064,0.240179 -2.0175139,-0.276207 -0.8286216,-0.708531 -1.1048285,-1.909432 -0.708531,-3.050289 0.6484858,-1.897423 2.7980989,-2.954216 4.8876649,-2.425818 1.369028,0.34826 2.509883,1.224917 3.230424,2.461845 0.780585,1.345009 0.984738,3.002253 0.552414,4.551413 -0.900676,3.29047 -4.155117,5.404055 -7.7097831,4.995747 C 5.8324557,24.524641 2.7341318,21.16212 2.4699342,16.982985 2.2297539,13.032023 4.4754377,9.2491846 8.0781405,7.5799326 13.494203,5.070051 19.882995,7.2556906 22.609041,12.563671 c 2.065547,4.011008 1.969477,8.118089 -0.288217,12.21316 -1.609207,2.90618 -1.82537,5.860396 -0.648487,8.778585 1.633226,4.023017 5.956468,6.268702 10.087567,5.223917 3.782837,-0.96072 6.148611,-4.623468 5.380033,-8.334249 -0.636476,-3.086316 -3.542657,-5.115839 -6.472854,-4.527398 -2.221665,0.444335 -3.758818,2.497875 -3.410558,4.575433 0.192146,1.152866 1.008757,2.06555 2.041531,2.281712 0.672505,0.144108 1.2009,0 1.657244,-0.420316 0.276206,-0.264198 0.372278,-0.552414 0.312233,-0.900676 -0.04803,-0.276206 -0.228171,-0.396297 -0.504376,-0.360271 -0.480363,0.07205 -0.768579,-0.08406 -0.924695,-0.240178 -0.156117,-0.144109 -0.336252,-0.432325 -0.288217,-0.924695 0.06004,-0.672503 0.636479,-1.284963 1.381037,-1.501125 1.333,-0.384288 2.858144,0.456343 3.458593,1.909432 0.756568,1.837378 -0.03602,4.083063 -1.849387,5.235926 -2.425819,1.537155 -5.668251,0.888668 -7.541657,-1.489117 -2.305728,-2.930196 -1.837377,-7.24143 1.068803,-9.823367 1.717288,-1.525144 3.950963,-2.269702 6.268702,-2.113585 2.425818,0.168126 4.635476,1.296973 6.220664,3.170378 1.753315,2.065549 2.581936,4.695523 2.353766,7.409557 -0.240181,2.834126 -1.597198,5.428071 -3.818865,7.301477 -4.239178,3.554665 -10.543906,3.578684 -14.98724,0.04803 -1.549163,-1.236928 -2.641983,-2.822118 -3.494622,-4.215163 -2.545909,-4.131097 -7.769827,-5.66825 -12.1411058,-3.590691 -2.029522,0.972728 -3.5906925,2.762069 -4.2631977,4.911682 -0.6604951,2.101577 -0.4323239,4.287216 0.6244687,6.148611 0.9006754,1.585191 2.4378285,2.738054 4.2031528,3.158371 1.6572429,0.384287 3.326496,0.10808 4.69552,-0.804604 2.041532,-1.369028 2.822119,-3.974981 1.813361,-6.05254 -0.720541,-1.489116 -2.317739,-2.30573 -3.7828367,-1.94546 -0.9727301,0.240181 -1.549162,0.816614 -1.7413058,1.70528 -0.1200906,0.564423 0.036027,0.996746 0.4443332,1.296973 0.1080806,0.08406 0.288216,0.168125 0.4563422,0.12009 0.132099,-0.03603 0.2521887,-0.168127 0.3242426,-0.36027 0.1080814,-0.276209 0.2882174,-0.48036 0.5283964,-0.576433 0.2521891,-0.09607 0.5404051,-0.08406 0.8406311,0.06004 0.60045,0.288217 0.948712,0.97273 0.864648,1.753315 -0.108082,1.09282 -1.020766,2.05354 -2.2336755,2.317739 -1.7292968,0.384288 -3.6147108,-0.648487 -4.3832874,-2.401802 -1.0447835,-2.377784 -0.096072,-5.235927 2.2096575,-6.65299 1.5131348,-0.936703 3.3264954,-1.212909 5.0798104,-0.768576 1.849387,0.468351 3.398549,1.645234 4.383287,3.314486 2.017513,3.470603 1.188893,7.817862 -1.873404,10.531898 H 47.98407 V 0.09832353 Z"
       id="path34227"
       style="fill:#ff4713;fill-opacity:1;stroke-width:0.120089" />
  </g>
</svg>
